<svg width="12" height="11" viewBox="0 0 12 11" fill="none" xmlns="http://www.w3.org/2000/svg">
<path d="M2.78154 1.19463L3.46748 0.508688C3.484 0.492084 3.49553 0.471176 3.50076 0.448343C3.50599 0.42551 3.5047 0.401668 3.49705 0.379528C3.4894 0.357389 3.47569 0.337841 3.45748 0.323108C3.43927 0.308375 3.41729 0.299048 3.39404 0.296188L0.890915 0.00087588C0.811227 -0.00849912 0.742477 0.0586883 0.751852 0.139938L1.04716 2.64306C1.05966 2.74619 1.18623 2.78994 1.25966 2.7165L1.94248 2.03369L4.03154 4.12119C4.07998 4.16963 4.15966 4.16963 4.2081 4.12119L4.8706 3.46025C4.91904 3.41181 4.91904 3.33213 4.8706 3.28369L2.78154 1.19463ZM8.29248 4.12119C8.34092 4.16963 8.4206 4.16963 8.46904 4.12119L10.5581 2.03369L11.2409 2.7165C11.2575 2.73302 11.2784 2.74455 11.3013 2.74978C11.3241 2.75501 11.3479 2.75373 11.3701 2.74608C11.3922 2.73842 11.4118 2.72471 11.4265 2.7065C11.4412 2.68829 11.4506 2.66631 11.4534 2.64306L11.7487 0.141501C11.7581 0.0618134 11.6909 -0.00693652 11.6097 0.00243848L9.10654 0.297751C9.00342 0.310251 8.95966 0.436813 9.0331 0.510251L9.71904 1.19619L7.62998 3.28213C7.60671 3.30562 7.59367 3.33735 7.59367 3.37041C7.59367 3.40347 7.60671 3.43519 7.62998 3.45869L8.29248 4.12119ZM11.4534 8.35869C11.4409 8.25556 11.3144 8.21181 11.2409 8.28525L10.5581 8.96806L8.46904 6.88056C8.44555 6.8573 8.41382 6.84425 8.38076 6.84425C8.3477 6.84425 8.31597 6.8573 8.29248 6.88056L7.62998 7.5415C7.60671 7.56499 7.59367 7.59672 7.59367 7.62978C7.59367 7.66284 7.60671 7.69457 7.62998 7.71806L9.71904 9.80713L9.0331 10.4931C9.01658 10.5097 9.00505 10.5306 8.99982 10.5534C8.99459 10.5762 8.99588 10.6001 9.00353 10.6222C9.01118 10.6444 9.02489 10.6639 9.0431 10.6786C9.06131 10.6934 9.08329 10.7027 9.10654 10.7056L11.6097 11.0009C11.6894 11.0103 11.7581 10.9431 11.7487 10.8618L11.4534 8.35869ZM4.2081 6.88056C4.18461 6.8573 4.15288 6.84425 4.11982 6.84425C4.08676 6.84425 4.05503 6.8573 4.03154 6.88056L1.94248 8.96806L1.25966 8.28525C1.24306 8.26873 1.22215 8.2572 1.19932 8.25197C1.17649 8.24674 1.15264 8.24802 1.1305 8.25568C1.10837 8.26333 1.08882 8.27704 1.07408 8.29525C1.05935 8.31346 1.05002 8.33544 1.04716 8.35869L0.751852 10.8603C0.742477 10.9399 0.809665 11.0087 0.890915 10.9993L3.39404 10.704C3.49717 10.6915 3.54091 10.5649 3.46748 10.4915L2.78154 9.80713L4.8706 7.71963C4.91904 7.67119 4.91904 7.5915 4.8706 7.54306L4.2081 6.88056Z" fill="#B0B0B0"/>
</svg>
