<svg width="16" height="11" viewBox="0 0 16 11" fill="none" xmlns="http://www.w3.org/2000/svg">
<path d="M15.854 1.26158C15.9004 1.31275 15.9372 1.37348 15.9622 1.44029C15.9873 1.50711 16.0001 1.5787 16 1.65098V9.35098C16 9.49685 15.9473 9.63674 15.8536 9.73989C15.7598 9.84303 15.6326 9.90098 15.5 9.90098C14.82 9.90098 14.326 9.52478 14.021 9.19038C13.896 9.05178 13.797 8.91538 13.723 8.80098H9.292L9.244 8.88678C9.117 9.11008 8.93 9.41038 8.689 9.71288C8.225 10.297 7.473 11.001 6.5 11.001C6.36739 11.001 6.24021 10.943 6.14645 10.8399C6.05268 10.7367 6 10.5968 6 10.451V6.05098H1.5C1.224 6.05098 0 5.80458 0 5.50098C0 5.19738 1.224 4.95098 1.5 4.95098H6V0.550977C6 0.405107 6.05268 0.265213 6.14645 0.162068C6.24021 0.0589229 6.36739 0.000976563 6.5 0.000976563C7.473 0.000976563 8.225 0.704977 8.689 1.28798C8.91333 1.57281 9.11506 1.87826 9.292 2.20098H13.723C13.8131 2.06293 13.9127 1.93274 14.021 1.81158C14.326 1.47718 14.821 1.10098 15.5 1.10098C15.5657 1.10085 15.6308 1.11496 15.6915 1.14252C15.7523 1.17008 15.8075 1.21053 15.854 1.26158Z" fill="#B0B0B0"/>
</svg>
