<svg width="11" height="16" viewBox="0 0 11 16" fill="none" xmlns="http://www.w3.org/2000/svg">
<path d="M9.7394 0.146001C9.68823 0.0995989 9.6275 0.0628209 9.56068 0.0377692C9.49387 0.0127175 9.42228 -0.00011655 9.35 7.97496e-07L1.65 7.97496e-07C1.50413 7.97496e-07 1.36424 0.0526788 1.26109 0.146447C1.15795 0.240215 1.1 0.367393 1.1 0.500001C1.1 1.18 1.4762 1.674 1.8106 1.979C1.9492 2.104 2.0856 2.203 2.2 2.277L2.2 6.708L2.1142 6.756C1.8909 6.883 1.5906 7.07 1.2881 7.311C0.703999 7.775 0 8.527 0 9.5C0 9.63261 0.0579458 9.75979 0.161091 9.85355C0.264236 9.94732 0.404131 10 0.55 10H4.95V14.5C4.95 14.776 5.1964 16 5.5 16C5.8036 16 6.05 14.776 6.05 14.5V10H10.45C10.5959 10 10.7358 9.94732 10.8389 9.85355C10.9421 9.75979 11 9.63261 11 9.5C11 8.527 10.296 7.775 9.713 7.311C9.42816 7.08667 9.12271 6.88494 8.8 6.708V2.277C8.93805 2.18693 9.06823 2.0873 9.1894 1.979C9.5238 1.674 9.9 1.179 9.9 0.500001C9.90013 0.434296 9.88601 0.369211 9.85845 0.30847C9.8309 0.247728 9.79044 0.19252 9.7394 0.146001Z" fill="#B0B0B0"/>
</svg>
