<svg width="11" height="9" viewBox="0 0 11 9" fill="none" xmlns="http://www.w3.org/2000/svg">
<path d="M6.6 0.346418C6.60001 0.285139 6.58281 0.224953 6.55016 0.172003C6.5175 0.119054 6.47056 0.0752362 6.41412 0.0450229C6.35767 0.0148096 6.29376 -0.000717791 6.22889 2.54847e-05C6.16402 0.00076876 6.10052 0.0177561 6.04487 0.0492537L2.46547 2.07676H1.1C0.808262 2.07676 0.528473 2.18623 0.322183 2.38109C0.115893 2.57594 0 2.84023 0 3.1158L0 5.88448C0 6.45941 0.4928 6.92352 1.1 6.92352H2.46547L6.04413 8.95033C6.0998 8.982 6.16338 8.99913 6.22835 8.99997C6.29333 9.0008 6.35738 8.98531 6.41394 8.95507C6.47049 8.92484 6.51752 8.88095 6.55022 8.8279C6.58291 8.77485 6.60009 8.71455 6.6 8.65317V0.346418ZM10.2667 0.692763V8.31236H11V0.692763H10.2667ZM8.8 2.07815V6.92698H9.53333V2.07815H8.8ZM7.33333 3.46353V5.5416H8.06667V3.46353H7.33333Z" fill="white"/>
</svg>
