<svg width="11" height="9" viewBox="0 0 11 9" fill="none" xmlns="http://www.w3.org/2000/svg">
<path d="M8.01385 3.33231C8.0931 3.26748 8.20053 3.23107 8.31254 3.23107C8.42455 3.23107 8.53198 3.26748 8.61123 3.33231L9.43966 4.01077L10.2681 3.33231C10.3068 3.2983 10.3535 3.27102 10.4053 3.2521C10.4572 3.23318 10.5131 3.22301 10.5699 3.22219C10.6266 3.22137 10.683 3.22992 10.7356 3.24733C10.7883 3.26474 10.8361 3.29065 10.8762 3.32352C10.9163 3.35639 10.948 3.39554 10.9692 3.43865C10.9905 3.48175 11.0009 3.52792 10.9999 3.57439C10.9989 3.62087 10.9865 3.66671 10.9634 3.70917C10.9403 3.75163 10.907 3.78985 10.8655 3.82154L10.037 4.5L10.8655 5.17846C10.907 5.21015 10.9403 5.24837 10.9634 5.29083C10.9865 5.33329 10.9989 5.37913 10.9999 5.42561C11.0009 5.47208 10.9905 5.51825 10.9692 5.56135C10.948 5.60446 10.9163 5.64361 10.8762 5.67648C10.8361 5.70935 10.7883 5.73526 10.7356 5.75267C10.683 5.77008 10.6266 5.77863 10.5699 5.77781C10.5131 5.77699 10.4572 5.76682 10.4053 5.7479C10.3535 5.72898 10.3068 5.7017 10.2681 5.66769L9.43966 4.98923L8.61123 5.66769C8.57253 5.7017 8.52587 5.72898 8.47402 5.7479C8.42217 5.76682 8.3662 5.77699 8.30945 5.77781C8.2527 5.77863 8.19633 5.77008 8.1437 5.75267C8.09107 5.73526 8.04326 5.70935 8.00312 5.67648C7.96299 5.64361 7.93134 5.60446 7.91009 5.56135C7.88883 5.51825 7.87839 5.47208 7.87939 5.42561C7.88039 5.37913 7.89281 5.33329 7.91591 5.29083C7.93902 5.24837 7.97232 5.21015 8.01385 5.17846L8.84229 4.5L8.01385 3.82154C7.9347 3.75663 7.89024 3.66865 7.89024 3.57692C7.89024 3.48519 7.9347 3.39721 8.01385 3.33231ZM2.5349 1.90108C2.49059 1.9524 2.44719 2.00425 2.40472 2.05662L2.31173 2.04969C2.04151 2.03052 1.77004 2.0259 1.49907 2.03585C1.20715 2.04877 0.868449 2.08662 0.589486 2.19138C0.296434 2.30215 0 2.52046 0 2.88692V6.078C0 6.44492 0.29587 6.66323 0.589486 6.774C0.868449 6.87877 1.20771 6.91662 1.49907 6.92954C1.80041 6.94078 2.10234 6.93399 2.40246 6.90923C2.43966 6.95569 2.48305 7.00846 2.53265 7.06754C2.70961 7.27615 2.96772 7.55492 3.29346 7.83508C3.92634 8.38154 4.89172 9 6.05829 9C6.17039 9 6.2779 8.96353 6.35716 8.89861C6.43643 8.8337 6.48096 8.74565 6.48096 8.65385V0.346154C6.48096 0.254348 6.43643 0.166303 6.35716 0.101386C6.2779 0.0364696 6.17039 0 6.05829 0C4.89454 0 3.93028 0.606923 3.29571 1.14554C3.01913 1.38126 2.7648 1.63383 2.5349 1.90108Z" fill="white"/>
</svg>
